<svg xmlns="http://www.w3.org/2000/svg" xml:space="preserve" width="300" height="365"><path fill="none" d="M0 .5h300v365H0z"/><path fill="#FFF" stroke="#999" d="M150 10.5c-77.319 0-140 62.681-140 140v155c0 27.614 22.386 50 50 50h180c27.614 0 50-22.386 50-50v-155c0-77.319-62.68-140-140-140zm0 40c48.38 0 88.732 34.355 97.998 80h-25.699c-8.754-31.711-37.805-55-72.299-55-34.495 0-63.546 23.289-72.299 55H52.002c9.266-45.645 49.62-80 97.998-80zm33.507 194.24c-10.476 3.726-21.753 5.76-33.507 5.76s-23.031-2.034-33.507-5.76l21.655-60.906c-13.707-4.874-23.523-17.955-23.523-33.334 0-19.537 15.838-35.375 35.375-35.375s35.375 15.838 35.375 35.375c0 15.379-9.816 28.46-23.523 33.334l21.655 60.906zM50 305.5v-135h27.7a74.765 74.765 0 0 0 13.06 25.995l-27.388 63.989c18.884 14.894 41.697 25.023 66.628 28.59V315.5H60c-5.523 0-10-4.477-10-10zm190 10h-70v-26.426c24.931-3.566 47.744-13.696 66.627-28.591l-27.387-63.988A74.765 74.765 0 0 0 222.3 170.5H250v135c0 5.523-4.477 10-10 10z"/></svg>