<svg xmlns="http://www.w3.org/2000/svg" width="60px" height="73px" viewBox="0 0 60 73" enable-background="new 0 0 60 73"><rect fill="none" width="60" height="73"/><path fill="#FFFFFF" stroke="#000000" stroke-width="0.25" d="M30,2C14.536,2,2,14.536,2,30v31c0,5.522,4.477,10,10,10h36c5.522,0,10-4.478,10-10V30C58,14.536,45.464,2,30,2z M30,10c9.676,0,17.746,6.871,19.6,16h-5.14C42.709,19.658,36.898,15,30,15c-6.899,0-12.709,4.658-14.46,11H10.4C12.253,16.871,20.324,10,30,10z M36.701,48.848C34.606,49.593,32.351,50,30,50s-4.606-0.407-6.701-1.152l4.331-12.181c-2.742-0.976-4.705-3.591-4.705-6.667c0-3.907,3.168-7.075,7.075-7.075s7.075,3.168,7.075,7.075c0,3.076-1.964,5.691-4.705,6.667L36.701,48.848z M10,61V34h5.54c0.528,1.914,1.426,3.674,2.612,5.199l-5.478,12.798c3.777,2.979,8.339,5.004,13.326,5.718V63H12C10.896,63,10,62.104,10,61z M48,63H34v-5.285c4.986-0.714,9.549-2.739,13.325-5.718l-5.478-12.798c1.187-1.525,2.084-3.285,2.612-5.199H50v27C50,62.104,49.104,63,48,63z"/></svg>
