<svg xmlns="http://www.w3.org/2000/svg" xml:space="preserve" width="600" height="730"><path fill="none" d="M0 0h600v730H0z"/><path fill="#FFF" stroke="#999" d="M300 20C145.361 20 20 145.361 20 300v310c0 55.229 44.771 100 100 100h360c55.229 0 100-44.771 100-100V300c0-154.639-125.36-280-280-280zm0 80c96.76 0 177.465 68.711 195.995 160h-51.397C427.091 196.579 368.988 150 300 150c-68.99 0-127.092 46.579-144.598 110h-51.398C122.536 168.711 203.243 100 300 100zm67.014 388.481C346.063 495.932 323.508 500 300 500s-46.062-4.068-67.013-11.519l43.31-121.813c-27.414-9.748-47.047-35.91-47.047-66.668 0-39.074 31.675-70.75 70.75-70.75 39.074 0 70.75 31.676 70.75 70.75 0 30.758-19.633 56.92-47.047 66.668l43.311 121.813zM100 610V340h55.4a149.536 149.536 0 0 0 26.119 51.99l-54.775 127.978c37.768 29.788 83.394 50.047 133.255 57.182V630H120c-11.046 0-20-8.954-20-20zm380 20H340v-52.851c49.861-7.135 95.487-27.394 133.255-57.183L418.48 391.99c11.859-15.253 20.835-32.855 26.119-51.99H500v270c0 11.046-8.954 20-20 20z"/></svg>